<?xml version="1.0" standalone="no"?>
<svg width="800" height="800" title="polygons" version="1.1" viewBox="0 0 800 800" xmlns="http://www.w3.org/2000/svg" class="svg-paper"><!----> <g><desc>pwidth:800;pheight:800;pcolor:;seed:10};sf:i+i*7;rf:10*sin(i/2);xf:400;yf:400;qt:33;sd:7;rn:0.8;minrd:126;maxrd:50;mina:148;maxa:360;cv:curveStep;rd:false</desc> <path stroke="#574B90" stroke-width="0.4mm" fill="none" d="M466.77,293.15L412.43,293.15L412.43,281.17L319.53,281.17L319.53,358.68L287.22,358.68L287.22,467.30L339.84,467.30L339.84,525.24L437.76,525.24L437.76,488.87L507.24,488.87L507.24,385.58L525.17,385.58"/><path stroke="#574B90" stroke-width="0.4mm" fill="none" d="M461.26,280.82L403.14,280.82L403.14,277.80L307.60,277.80L307.60,366.79L281.64,366.79L281.64,480.79L344.80,480.79L344.80,533.95L449.53,533.95L449.53,486.25L516.96,486.25L516.96,373.59L531.37,373.59"/><path stroke="#574B90" stroke-width="0.4mm" fill="none" d="M456.82,269.86L395.25,269.86L395.25,274.44L297.08,274.44L297.08,373.57L276.41,373.57L276.41,492.60L348.81,492.60L348.81,541.90L459.75,541.90L459.75,484.35L525.70,484.35L525.70,363.28L537.17,363.28"/><path stroke="#574B90" stroke-width="0.4mm" fill="none" d="M456.25,260.95L391.30,260.95L391.30,269.32L289.14,269.32L289.14,376.10L270.45,376.10L270.45,500.88L349.32,500.88L349.32,549.69L466.35,549.69L466.35,485.78L533.42,485.78L533.42,357.28L543.79,357.28"/><path stroke="#574B90" stroke-width="0.4mm" fill="none" d="M461.50,254.46L393.03,254.46L393.03,261.18L284.49,261.18L284.49,372.43L262.93,372.43L262.93,504.44L344.59,504.44L344.59,557.81L467.97,557.81L467.97,492.34L540.17,492.34L540.17,357.34L552.13,357.34"/><path stroke="#574B90" stroke-width="0.4mm" fill="none" d="M472.81,250.82L400.79,250.82L400.79,250.06L283.56,250.06L283.56,362.21L254.02,362.21L254.02,502.82L334.40,502.82L334.40,566.00L464.18,566.00L464.18,504.18L545.63,504.18L545.63,363.91L562.03,363.91"/><path stroke="#574B90" stroke-width="0.4mm" fill="none" d="M488.54,250.21L413.32,250.21L413.32,237.38L286.18,237.38L286.18,347.01L244.75,347.01L244.75,496.54L320.22,496.54L320.22,573.37L455.77,573.37L455.77,519.65L549.32,519.65L549.32,375.84L572.31,375.84"/><path stroke="#574B90" stroke-width="0.4mm" fill="none" d="M505.71,251.85L427.89,251.85L427.89,224.98L291.06,224.98L291.06,329.91L236.26,329.91L236.26,487.62L304.76,487.62L304.76,579.35L444.98,579.35L444.98,536.03L551.33,536.03L551.33,390.27L581.74,390.27"/><path stroke="#574B90" stroke-width="0.4mm" fill="none" d="M521.03,253.53L440.99,253.53L440.99,214.06L295.61,214.06L295.61,314.60L228.84,314.60L228.84,479.45L290.96,479.45L290.96,584.47L435.18,584.47L435.18,550.59L552.92,550.59L552.92,403.30L589.97,403.30"/><path stroke="#574B90" stroke-width="0.4mm" fill="none" d="M531.91,252.34L449.35,252.34L449.35,204.80L296.74,204.80L296.74,304.26L221.89,304.26L221.89,475.80L281.15,475.80L281.15,590.27L429.91,590.27L429.91,561.46L556.15,561.46L556.15,411.07L597.69,411.07"/><path stroke="#574B90" stroke-width="0.4mm" fill="none" d="M536.74,245.93L450.77,245.93L450.77,197.03L292.08,197.03L292.08,300.97L214.66,300.97L214.66,479.48L276.80,479.48L276.80,598.14L431.72,598.14L431.72,567.60L562.75,567.60L562.75,410.85L605.71,410.85"/><path stroke="#574B90" stroke-width="0.4mm" fill="none" d="M534.84,233.82L444.49,233.82L444.49,190.97L281.06,190.97L281.06,305.52L207.20,305.52L207.20,491.22L278.52,491.22L278.52,608.22L441.31,608.22L441.31,568.43L573.00,568.43L573.00,401.81L613.99,401.81"/><path stroke="#574B90" stroke-width="0.4mm" fill="none" d="M526.68,217.69L431.56,217.69L431.56,187.29L265.26,187.29L265.26,317.06L200.42,317.06L200.42,509.29L285.87,509.29L285.87,619.22L457.26,619.22L457.26,564.07L585.53,564.07L585.53,385.38L621.52,385.38"/><path stroke="#574B90" stroke-width="0.4mm" fill="none" d="M514.47,200.51L414.94,200.51L414.94,186.12L247.72,186.12L247.72,332.79L195.17,332.79L195.17,530.06L296.86,530.06L296.86,629.40L476.22,629.40L476.22,555.99L598.18,555.99L598.18,365.12L627.34,365.12"/><path stroke="#574B90" stroke-width="0.4mm" fill="none" d="M502.20,185.06L398.94,185.06L398.94,186.08L231.69,186.08L231.69,348.19L191.18,348.19L191.18,549.31L307.92,549.31L307.92,638.00L493.99,638.00L493.99,547.47L609.29,547.47L609.29,345.89L631.77,345.89"/><path stroke="#574B90" stroke-width="0.4mm" fill="none" d="M494.62,172.92L388.04,172.92L388.04,184.45L219.51,184.45L219.51,358.29L186.90,358.29L186.90,563.54L314.75,563.54L314.75,645.64L506.80,645.64L506.80,542.77L618.43,542.77L618.43,332.39L636.53,332.39"/><path stroke="#574B90" stroke-width="0.4mm" fill="none" d="M495.59,164.67L385.60,164.67L385.60,178.54L212.46,178.54L212.46,359.17L180.54,359.17L180.54,570.55L313.88,570.55L313.88,653.50L512.07,653.50L512.07,545.56L625.87,545.56L625.87,328.01L643.58,328.01"/><path stroke="#574B90" stroke-width="0.4mm" fill="none" d="M506.63,160.68L393.00,160.68L393.00,167.42L211.16,167.42L211.16,349.30L171.52,349.30L171.52,569.36L303.93,569.36L303.93,661.88L508.68,661.88L508.68,557.21L631.59,557.21L631.59,334.15L653.59,334.15"/><path stroke="#574B90" stroke-width="0.4mm" fill="none" d="M526.25,161.34L409.19,161.34L409.19,152.49L215.67,152.49L215.67,330.02L160.96,330.02L160.96,560.25L286.25,560.25L286.25,669.81L497.19,669.81L497.19,576.19L634.95,576.19L634.95,349.90L665.31,349.90"/><path stroke="#574B90" stroke-width="0.4mm" fill="none" d="M550.40,166.20L430.69,166.20L430.69,136.64L224.78,136.64L224.78,305.40L150.82,305.40L150.82,545.40L264.50,545.40L264.50,675.91L480.21,675.91L480.21,598.65L635.52,598.65L635.52,371.81L676.57,371.81"/><path stroke="#574B90" stroke-width="0.4mm" fill="none" d="M573.87,172.92L452.37,172.92L452.37,122.48L235.40,122.48L235.40,281.02L142.37,281.02L142.37,529.15L243.35,529.15L243.35,680.03L462.29,680.03L462.29,620.04L634.32,620.04L634.32,394.35L685.94,394.35"/><path stroke="#574B90" stroke-width="0.4mm" fill="none" d="M592.09,177.43L468.93,177.43L468.93,111.05L243.01,111.05L243.01,262.25L135.31,262.25L135.31,517.18L226.93,517.18L226.93,683.87L448.87,683.87L448.87,636.80L634.01,636.80L634.01,411.42L693.78,411.42"/><path stroke="#574B90" stroke-width="0.4mm" fill="none" d="M602.08,175.57L476.30,175.57L476.30,102.08L243.38,102.08L243.38,252.93L128.39,252.93L128.39,514.53L217.93,514.53L217.93,689.88L444.57,689.88L444.57,646.95L637.65,646.95L637.65,418.06L701.46,418.06"/><path stroke="#574B90" stroke-width="0.4mm" fill="none" d="M602.37,165.17L472.48,165.17L472.48,95.36L234.30,95.36L234.30,254.95L120.90,254.95L120.90,523.77L217.67,523.77L217.67,699.38L451.73,699.38L451.73,649.55L646.84,649.55L646.84,411.81L709.78,411.81"/><path stroke="#574B90" stroke-width="0.4mm" fill="none" d="M592.99,147.26L457.86,147.26L457.86,91.53L216.69,91.53L216.69,268.08L113.56,268.08L113.56,543.97L226.12,543.97L226.12,711.45L469.62,711.45L469.62,644.40L660.69,644.40L660.69,393.31L717.93,393.31"/><path stroke="#574B90" stroke-width="0.4mm" fill="none" d="M575.94,125.55L435.54,125.55L435.54,91.33L194.21,91.33L194.21,289.54L107.84,289.54L107.84,570.93L241.48,570.93L241.48,723.61L494.49,723.61L494.49,632.60L676.34,632.60L676.34,366.44L724.27,366.44"/><path stroke="#574B90" stroke-width="0.4mm" fill="none" d="M555.76,104.55L410.94,104.55L410.94,94.01L171.71,94.01L171.71,313.89L104.38,313.89L104.38,598.61L259.66,598.61L259.66,733.78L520.62,733.78L520.62,617.60L690.75,617.60L690.75,337.57L728.11,337.57"/><path stroke="#574B90" stroke-width="0.4mm" fill="none" d="M538.90,87.48L390.58,87.48L390.58,96.55L153.33,96.55L153.33,334.13L101.83,334.13L101.83,621.31L274.86,621.31L274.86,741.84L542.12,741.84L542.12,604.96L702.36,604.96L702.36,313.74L730.94,313.74"/><path stroke="#574B90" stroke-width="0.4mm" fill="none" d="M531.64,75.70L380.09,75.70L380.09,94.88L141.53,94.88L141.53,343.82L97.61,343.82L97.61,635.07L281.39,635.07L281.39,749.30L554.49,749.30L554.49,600.51L711.25,600.51L711.25,300.73L735.63,300.73"/><path stroke="#574B90" stroke-width="0.4mm" fill="none" d="M537.87,69.61L382.76,69.61L382.76,86.21L137.44,86.21L137.44,339.10L89.82,339.10L89.82,637.85L275.78,637.85L275.78,757.49L555.28,757.49L555.28,607.93L717.85,607.93L717.85,301.80L744.27,301.80"/><path stroke="#574B90" stroke-width="0.4mm" fill="none" d="M557.55,69.65L398.75,69.65L398.75,70.85L141.41,70.85L141.41,319.91L78.79,319.91L78.79,629.28L258.05,629.28L258.05,766.00L544.20,766.00L544.20,627.11L721.76,627.11L721.76,317.21L756.51,317.21"/><path stroke="#574B90" stroke-width="0.4mm" fill="none" d="M586.63,75.90L424.80,75.90L424.80,52.01L152.73,52.01L152.73,290.17L66.86,290.17L66.86,611.03L231.85,611.03L231.85,772.99L523.46,772.99L523.46,654.07L722.10,654.07L722.10,343.84L769.76,343.84"/><path stroke="#574B90" stroke-width="0.4mm" fill="none" d="M618.45,86.62L454.82,86.62L454.82,33.82L168.53,33.82L168.53,256.76L56.54,256.76L56.54,587.56L203.19,587.56L203.19,777.12L498.03,777.12L498.03,682.70L719.06,682.70L719.06,375.40L781.21,375.40"/></g></svg>