<?xml version="1.0" standalone="no"?>
<svg width="800" height="800" title="polygons" version="1.1" viewBox="0 0 800 800" xmlns="http://www.w3.org/2000/svg" class="svg-paper"><!----> <g><desc>pwidth:800;pheight:800;pcolor:;seed:10};sf:i+i*7;rf:10*sin(i/2);xf:400;yf:400;qt:35;sd:7;rn:0.7;minrd:128;maxrd:50;mina:0;maxa:313;cv:curveCardinal;rd:false</desc> <path stroke="#9E579D" stroke-width="0.4mm" fill="none" d="M400,528C400,528,483.66,497.30,490.06,490.96C496.46,484.62,527.90,410.28,527.99,401.28C528.08,392.27,498.13,317.32,491.85,310.85C485.58,304.39,411.56,272.21,402.55,272.03C393.55,271.85,318.30,301.05,311.77,307.26C305.25,313.47,272.06,396.17,272.06,396.17"/><path stroke="#9E579D" stroke-width="0.4mm" fill="none" d="M411.37,535.52C411.37,535.52,497.22,495.59,503.43,488.31C509.64,481.03,536.34,399.53,535.63,389.99C534.93,380.44,496.55,303.74,489.34,297.46C482.12,291.17,400.89,263.67,391.34,264.28C381.79,264.89,304.71,302.49,298.35,309.65C292.00,316.80,264.20,407.31,264.20,407.31"/><path stroke="#9E579D" stroke-width="0.4mm" fill="none" d="M421.07,542.45C421.07,542.45,509.12,494.51,515.20,486.40C521.28,478.30,544.04,390.39,542.65,380.35C541.27,370.31,495.59,291.83,487.55,285.67C479.50,279.51,391.82,255.88,381.77,257.16C371.72,258.44,292.79,303.34,286.55,311.32C280.31,319.30,256.98,416.80,256.98,416.80"/><path stroke="#9E579D" stroke-width="0.4mm" fill="none" d="M426.33,549.70C426.33,549.70,517.85,496.58,524.04,487.86C530.22,479.13,551.70,385.72,549.96,375.17C548.21,364.61,497.76,283.11,489.09,276.85C480.43,270.58,387.23,248.16,376.66,249.80C366.09,251.44,284.09,301.08,277.74,309.69C271.39,318.29,249.58,421.84,249.58,421.84"/><path stroke="#9E579D" stroke-width="0.4mm" fill="none" d="M425.29,557.99C425.29,557.99,522.48,503.57,529.13,494.48C535.77,485.40,559.90,387.42,558.23,376.29C556.57,365.16,504.78,278.56,495.76,271.82C486.75,265.09,389.02,239.98,377.87,241.54C366.72,243.09,279.61,294.01,272.78,302.96C265.96,311.91,241.32,420.55,241.32,420.55"/><path stroke="#9E579D" stroke-width="0.4mm" fill="none" d="M417.52,567.08C417.52,567.08,522.52,515.56,530.00,506.41C537.49,497.26,568.37,395.92,567.25,384.15C566.14,372.38,516.77,278.64,507.70,271.06C498.63,263.49,397.60,231.60,385.82,232.60C374.04,233.60,279.81,282.02,272.14,291.02C264.48,300.01,232.47,412.51,232.47,412.51"/><path stroke="#9E579D" stroke-width="0.4mm" fill="none" d="M404.33,575.95C404.33,575.95,518.29,530.91,526.87,521.98C535.45,513.06,576.16,409.80,575.98,397.42C575.80,385.04,532.08,283.02,523.24,274.35C514.40,265.68,411.56,223.94,399.18,224.00C386.79,224.06,284.35,266.76,275.59,275.51C266.83,284.26,224.00,399.07,224.00,399.07"/><path stroke="#9E579D" stroke-width="0.4mm" fill="none" d="M388.74,583.66C388.74,583.66,511.47,546.96,521.21,538.43C530.95,529.90,582.61,426.00,583.53,413.09C584.45,400.18,548.06,290.00,539.63,280.17C531.20,270.35,427.82,217.66,414.92,216.61C402.02,215.56,291.48,250.85,281.57,259.18C271.66,267.51,216.76,383.25,216.76,383.25"/><path stroke="#9E579D" stroke-width="0.4mm" fill="none" d="M374.71,590.33C374.71,590.33,505.17,561.20,515.94,553.04C526.71,544.89,588.15,440.56,590.07,427.18C591.98,413.81,562.24,296.44,554.19,285.59C546.14,274.74,442.43,212.26,429.08,210.21C415.73,208.17,298.06,236.73,287.14,244.68C276.21,252.62,210.51,369.03,210.51,369.03"/><path stroke="#9E579D" stroke-width="0.4mm" fill="none" d="M366.04,597.10C366.04,597.10,503.01,572.01,514.54,563.95C526.08,555.89,594.22,449.76,596.75,435.92C599.28,422.08,573.03,298.72,565.09,287.10C557.14,275.49,451.70,206.29,437.88,203.62C424.06,200.96,300.45,225.97,288.75,233.80C277.06,241.62,204.01,360.16,204.01,360.16"/><path stroke="#9E579D" stroke-width="0.4mm" fill="none" d="M365.35,605.09C365.35,605.09,507.71,578.54,519.68,570.12C531.64,561.70,602.16,451.10,604.74,436.69C607.32,422.29,579.61,294.08,571.31,282.03C563.01,269.97,453.11,198.36,438.73,195.64C424.35,192.91,295.88,219.34,283.74,227.52C271.61,235.70,196.03,359.23,196.03,359.23"/><path stroke="#9E579D" stroke-width="0.4mm" fill="none" d="M373.47,614.36C373.47,614.36,519.94,580.28,531.97,571.00C544.00,561.71,612.07,443.73,614.09,428.67C616.11,413.60,581.47,281.87,572.31,269.74C563.14,257.62,445.84,188.37,430.80,186.21C415.76,184.04,283.68,217.36,271.47,226.40C259.26,235.45,186.53,367.07,186.53,367.07"/><path stroke="#9E579D" stroke-width="0.4mm" fill="none" d="M389.08,623.73C389.08,623.73,537.93,577.20,549.65,566.67C561.38,556.14,622.69,428.88,623.61,413.15C624.54,397.42,578.57,263.85,568.16,252.02C557.75,240.19,431.10,177.61,415.38,176.53C399.66,175.45,265.64,220.08,253.70,230.38C241.77,240.67,176.69,382.39,176.69,382.39"/><path stroke="#9E579D" stroke-width="0.4mm" fill="none" d="M408.71,631.84C408.71,631.84,558.14,570.53,569.30,558.62C580.46,546.71,632.36,409.92,631.91,393.60C631.46,377.29,572.10,243.57,560.30,232.29C548.50,221.01,412.24,167.75,395.92,168.04C379.60,168.32,245.29,226.35,233.90,238.03C222.50,249.72,168.01,401.77,168.01,401.77"/><path stroke="#9E579D" stroke-width="0.4mm" fill="none" d="M427.46,638.42C427.46,638.42,576.70,563.29,587.26,550.11C597.82,536.93,640.45,391.71,638.69,374.92C636.92,358.13,565.04,224.94,551.97,214.24C538.90,203.55,394.11,159.48,377.30,161.08C360.49,162.67,226.59,233.22,215.77,246.18C204.95,259.15,160.86,420.31,160.86,420.31"/><path stroke="#9E579D" stroke-width="0.4mm" fill="none" d="M440.42,644.68C440.42,644.68,590.64,559.57,600.88,545.44C611.11,531.31,647.75,379.27,645.07,362.02C642.40,344.78,561.47,210.96,547.44,200.58C533.41,190.21,381.74,152.06,364.47,154.56C347.20,157.06,212.58,236.66,202.06,250.58C191.55,264.51,154.22,433.08,154.22,433.08"/><path stroke="#9E579D" stroke-width="0.4mm" fill="none" d="M443.99,652.19C443.99,652.19,598.26,562.95,608.69,548.27C619.12,533.58,655.54,376.31,652.62,358.53C649.70,340.76,564.92,203.37,550.34,192.80C535.76,182.22,378.85,144.24,361.05,146.98C343.25,149.72,205.03,233.13,194.31,247.60C183.58,262.07,146.60,436.42,146.60,436.42"/><path stroke="#9E579D" stroke-width="0.4mm" fill="none" d="M436.67,661.44C436.67,661.44,598.75,574.76,610.00,559.98C621.26,545.21,664.19,384.36,661.79,365.94C659.40,347.52,576.73,203.01,562.07,191.60C547.41,180.20,386.99,135.67,368.55,137.88C350.11,140.09,204.78,221.31,193.23,235.86C181.68,250.41,137.58,428.84,137.58,428.84"/><path stroke="#9E579D" stroke-width="0.4mm" fill="none" d="M419.55,671.30C419.55,671.30,592.17,593.44,604.77,579.04C617.36,564.63,672.66,402.26,671.48,383.16C670.29,364.06,595.35,209.77,581.07,197.03C566.79,184.29,404.98,127.37,385.87,128.37C366.76,129.36,211.73,202.76,198.84,216.91C185.96,231.07,128.24,411.42,128.24,411.42"/><path stroke="#9E579D" stroke-width="0.4mm" fill="none" d="M396.33,679.98C396.33,679.98,580.19,615.22,594.37,601.54C608.55,587.87,679.47,426.16,679.93,406.46C680.38,386.77,617.00,221.96,603.47,207.65C589.94,193.33,428.95,120.80,409.26,120.15C389.57,119.50,224.13,181.23,209.69,194.62C195.24,208.01,120.26,387.95,120.26,387.95"/><path stroke="#9E579D" stroke-width="0.4mm" fill="none" d="M372.70,686.70C372.70,686.70,566.63,635.78,582.31,622.95C598.00,610.12,684.29,450.31,686.42,430.16C688.54,410.01,637.43,235.73,624.76,219.92C612.09,204.11,453.15,116.22,433.02,113.90C412.89,111.58,238.11,160.95,222.17,173.46C206.23,185.97,114.24,364.13,114.24,364.13"/><path stroke="#9E579D" stroke-width="0.4mm" fill="none" d="M354.73,692.52C354.73,692.52,556.77,651.94,573.64,639.72C590.50,627.50,688.66,468.73,692.05,448.18C695.44,427.64,653.49,245.75,641.44,228.76C629.39,211.77,471.61,112.04,451.09,108.44C430.58,104.85,248.28,144.99,231.18,156.86C214.07,168.74,108.97,346.00,108.97,346.00"/><path stroke="#9E579D" stroke-width="0.4mm" fill="none" d="M347.21,699.38C347.21,699.38,555.54,662.07,573.12,649.89C590.71,637.71,694.92,476.80,698.84,455.77C702.76,434.75,663.61,247.08,651.60,229.38C639.60,211.68,479.73,105.86,458.75,101.73C437.76,97.60,249.72,134.88,231.89,146.71C214.07,158.54,102.33,338.28,102.33,338.28"/><path stroke="#9E579D" stroke-width="0.4mm" fill="none" d="M352.51,708.37C352.51,708.37,565.44,665.43,583.21,652.54C600.98,639.65,704.32,472.22,707.88,450.56C711.43,428.90,667.07,237.21,654.36,219.32C641.64,201.42,475.25,96.42,453.63,92.64C432.00,88.87,239.88,131.32,221.86,143.85C203.84,156.39,93.19,343.31,93.19,343.31"/><path stroke="#9E579D" stroke-width="0.4mm" fill="none" d="M370.08,718.60C370.08,718.60,585.48,661.73,602.89,647.46C620.30,633.18,715.95,455.49,718.28,433.10C720.61,410.71,663.57,217.14,649.47,199.59C635.37,182.03,458.64,84.61,436.27,82.06C413.90,79.51,219.78,134.62,202.08,148.55C184.39,162.47,82.44,360.56,82.44,360.56"/><path stroke="#9E579D" stroke-width="0.4mm" fill="none" d="M396.20,727.98C396.20,727.98,611.47,651.79,628.06,635.74C644.64,619.69,727.43,430.14,727.92,407.07C728.42,384.00,653.88,191.05,638.00,174.30C622.12,157.56,433.40,72.89,410.34,72.16C387.27,71.44,193.59,144.05,176.69,159.76C159.79,175.47,72.28,386.39,72.28,386.39"/><path stroke="#9E579D" stroke-width="0.4mm" fill="none" d="M424.62,735.10C424.62,735.10,637.72,638.63,653.26,620.81C668.79,602.99,736.82,402.32,735.33,378.73C733.83,355.13,640.99,164.67,623.32,148.96C605.66,133.24,405.68,63.22,382.07,64.48C358.46,65.74,167.08,156.68,151.20,174.19C135.31,191.69,64.32,414.58,64.32,414.58"/><path stroke="#9E579D" stroke-width="0.4mm" fill="none" d="M448.10,740.62C448.10,740.62,659.18,627.48,673.83,608.21C688.48,588.94,744.23,379.30,741.08,355.30C737.94,331.30,630.05,143.10,610.93,128.26C591.81,113.42,382.73,55.58,358.70,58.49C334.67,61.39,145.41,167.40,130.37,186.37C115.34,205.34,58.09,437.89,58.09,437.89"/><path stroke="#9E579D" stroke-width="0.4mm" fill="none" d="M460.56,746.75C460.56,746.75,672.66,624.00,687.00,603.81C701.34,583.61,751.36,367.34,747.34,342.91C743.32,318.47,626.71,129.59,606.66,115.05C586.61,100.51,370.85,48.34,346.37,52.11C321.90,55.88,131.86,170.61,117.12,190.51C102.39,210.41,51.59,450.16,51.59,450.16"/><path stroke="#9E579D" stroke-width="0.4mm" fill="none" d="M458.48,755.22C458.48,755.22,676.61,631.79,691.48,611.28C706.34,590.77,759.65,370.10,755.78,345.06C751.92,320.03,634.54,125.71,614.18,110.64C593.82,95.57,373.68,40.07,348.62,43.69C323.55,47.30,128.06,162.74,112.79,182.95C97.52,203.15,43.19,447.83,43.19,447.83"/><path stroke="#9E579D" stroke-width="0.4mm" fill="none" d="M441.68,765.63C441.68,765.63,670.65,650.69,686.87,630.50C703.08,610.32,768.71,387.72,766.03,361.97C763.35,336.22,653.37,131.87,633.35,115.45C613.33,99.03,391.40,31.19,365.62,33.61C339.85,36.03,134.41,143.96,117.79,163.82C101.17,183.68,33.28,430.72,33.28,430.72"/><path stroke="#9E579D" stroke-width="0.4mm" fill="none" d="M413.55,775.76C413.55,775.76,655.88,676.77,674.00,657.49C692.11,638.21,776.56,416.65,775.87,390.20C775.18,363.76,679.31,146.89,660.21,128.58C641.11,110.28,420.40,23.62,393.95,24.05C367.50,24.47,149.69,118.18,131.19,137.10C112.70,156.01,24.01,402.30,24.01,402.30"/><path stroke="#9E579D" stroke-width="0.4mm" fill="none" d="M380.71,783.52C380.71,783.52,635.99,704.13,656.12,686.11C676.25,668.09,781.68,450.08,783.30,423.11C784.93,396.14,706.46,167.05,688.65,146.74C670.83,126.43,453.88,18.84,426.93,16.95C399.98,15.05,170.12,91.23,149.63,108.84C129.15,126.46,17.23,369.25,17.23,369.25"/><path stroke="#9E579D" stroke-width="0.4mm" fill="none" d="M351.43,788.98C351.43,788.98,617.31,727.42,639.16,710.59C661.01,693.77,784.79,479.78,788.48,452.45C792.17,425.12,729.57,185.97,712.96,163.95C696.35,141.93,483.62,16.03,456.32,12.07C429.03,8.10,189.27,68.31,167.08,84.70C144.90,101.09,12.65,339.81,12.65,339.81"/><path stroke="#9E579D" stroke-width="0.4mm" fill="none" d="M333.20,794.38C333.20,794.38,606.98,743.44,630.00,727.26C653.03,711.08,788.72,498.43,793.70,470.73C798.67,443.03,745.49,196.46,729.54,173.27C713.58,150.09,502.30,12.28,474.66,7.03C447.01,1.78,199.91,52.50,176.57,68.22C153.23,83.94,7.79,321.43,7.79,321.43"/></g></svg>