<?xml version="1.0" standalone="no"?>
<svg width="1097" height="846" title="polygons" version="1.1" viewBox="0 0 1097 846" xmlns="http://www.w3.org/2000/svg" class="svg-paper"><!----> <g><desc>pwidth:1097;pheight:846;pcolor:;seed:7448};sf:i+i*7;rf:10*sin(i/2);xf:400;yf:400;qt:78;sd:5;rn:-2;minrd:54;maxrd:50;mina:57;maxa:149;cv:curveLinear;rd:false</desc> <path stroke="#574B90" stroke-width="0.4mm" fill="none" d="M445.29,429.41L453.92,403.01L448.28,375.82L429.88,355.02L403.58,346.12"/><path stroke="#574B90" stroke-width="0.4mm" fill="none" d="M454.64,429.30L461.98,398.28L452.92,367.70L429.87,345.67L398.92,338.01"/><path stroke="#574B90" stroke-width="0.4mm" fill="none" d="M463.65,429.12L469.71,393.64L457.33,359.83L429.79,336.65L394.37,330.23"/><path stroke="#574B90" stroke-width="0.4mm" fill="none" d="M471.79,430.51L477.46,390.80L462.64,353.52L431.26,328.54L391.61,322.45"/><path stroke="#574B90" stroke-width="0.4mm" fill="none" d="M478.62,434.85L485.55,391.17L469.85,349.82L435.67,321.75L392.07,314.37"/><path stroke="#574B90" stroke-width="0.4mm" fill="none" d="M483.74,442.70L493.89,395.43L479.20,349.38L443.57,316.71L396.42,306.07"/><path stroke="#574B90" stroke-width="0.4mm" fill="none" d="M486.89,453.43L501.95,403.18L490.05,352.10L454.34,313.68L404.25,298.09"/><path stroke="#574B90" stroke-width="0.4mm" fill="none" d="M488.42,465.44L509.25,412.85L501.19,356.86L466.36,312.27L413.99,290.89"/><path stroke="#574B90" stroke-width="0.4mm" fill="none" d="M489.64,476.74L515.92,422.05L511.55,361.52L477.68,311.17L423.26,284.32"/><path stroke="#574B90" stroke-width="0.4mm" fill="none" d="M492.49,485.57L522.78,428.29L520.61,363.53L486.53,308.41L429.58,277.52"/><path stroke="#574B90" stroke-width="0.4mm" fill="none" d="M498.65,490.68L530.68,429.66L528.14,360.80L491.71,302.30L431.03,269.64"/><path stroke="#574B90" stroke-width="0.4mm" fill="none" d="M508.69,491.38L539.73,425.28L533.82,352.50L492.51,292.27L426.74,260.54"/><path stroke="#574B90" stroke-width="0.4mm" fill="none" d="M521.67,487.73L549.18,415.66L537.24,339.45L489.00,279.26L417.23,250.99"/><path stroke="#574B90" stroke-width="0.4mm" fill="none" d="M535.65,481.02L557.97,402.89L538.52,324.00L482.43,265.21L404.55,242.07"/><path stroke="#574B90" stroke-width="0.4mm" fill="none" d="M548.65,473.89L565.71,390.24L538.95,309.18L475.44,252.13L391.98,234.19"/><path stroke="#574B90" stroke-width="0.4mm" fill="none" d="M559.42,469.72L572.99,381.27L540.80,297.77L471.38,241.32L383.08,226.82"/><path stroke="#574B90" stroke-width="0.4mm" fill="none" d="M567.40,471.42L580.76,378.79L546.31,291.76L473.17,233.36L380.68,219.03"/><path stroke="#574B90" stroke-width="0.4mm" fill="none" d="M572.18,480.34L589.34,384.15L556.42,292.15L482.14,228.67L386.13,210.51"/><path stroke="#574B90" stroke-width="0.4mm" fill="none" d="M573.38,495.63L597.97,396.82L570.21,298.85L497.44,227.63L398.89,202.00"/><path stroke="#574B90" stroke-width="0.4mm" fill="none" d="M571.28,514.45L605.51,414.20L585.39,310.19L516.24,229.93L416.35,194.65"/><path stroke="#574B90" stroke-width="0.4mm" fill="none" d="M567.62,533.04L611.57,432.15L599.57,322.75L534.79,233.79L434.36,188.78"/><path stroke="#574B90" stroke-width="0.4mm" fill="none" d="M565.50,547.96L617.15,446.14L611.37,332.12L549.69,236.05L448.42,183.34"/><path stroke="#574B90" stroke-width="0.4mm" fill="none" d="M568.21,556.86L623.92,452.52L620.41,334.29L558.61,233.44L454.86,176.64"/><path stroke="#574B90" stroke-width="0.4mm" fill="none" d="M577.55,558.49L632.84,449.30L626.55,327.06L560.34,224.12L451.73,167.69"/><path stroke="#574B90" stroke-width="0.4mm" fill="none" d="M592.88,552.69L643.26,436.64L629.30,310.90L554.70,208.73L439.19,157.14"/><path stroke="#574B90" stroke-width="0.4mm" fill="none" d="M611.41,540.79L653.42,417.11L628.42,288.91L543.00,190.08L419.77,146.77"/><path stroke="#574B90" stroke-width="0.4mm" fill="none" d="M629.60,526.21L661.96,395.42L625.04,265.84L528.61,171.74L398.16,138.01"/><path stroke="#574B90" stroke-width="0.4mm" fill="none" d="M644.78,513.95L669.04,377.23L622.15,246.54L516.50,156.43L380.05,130.74"/><path stroke="#574B90" stroke-width="0.4mm" fill="none" d="M655.72,509.04L676.10,367.54L623.45,234.62L511.71,145.43L370.43,123.58"/><path stroke="#574B90" stroke-width="0.4mm" fill="none" d="M661.98,514.73L684.35,369.37L631.53,232.10L517.47,139.24L372.34,115.34"/><path stroke="#574B90" stroke-width="0.4mm" fill="none" d="M663.12,531.17L693.51,383.06L646.28,239.43L533.92,138.27L386.14,106.33"/><path stroke="#574B90" stroke-width="0.4mm" fill="none" d="M659.04,555.25L701.94,405.98L664.99,255.14L557.95,142.60L409.15,98.14"/><path stroke="#574B90" stroke-width="0.4mm" fill="none" d="M651.18,581.68L708.26,432.83L683.81,275.29L584.30,150.74L436.06,92.10"/><path stroke="#574B90" stroke-width="0.4mm" fill="none" d="M643.18,604.91L712.86,456.96L699.79,293.94L607.44,158.98L460.23,87.76"/><path stroke="#574B90" stroke-width="0.4mm" fill="none" d="M639.91,620.72L717.88,472.30L711.78,304.76L623.22,162.41L475.63,82.89"/><path stroke="#574B90" stroke-width="0.4mm" fill="none" d="M645.24,626.75L725.50,474.89L719.67,303.22L629.30,157.15L478.29,75.31"/><path stroke="#574B90" stroke-width="0.4mm" fill="none" d="M660.02,622.16L736.04,463.56L723.19,288.15L624.87,142.32L467.07,64.64"/><path stroke="#574B90" stroke-width="0.4mm" fill="none" d="M681.62,607.82L747.66,440.38L721.76,262.26L610.76,120.57L444.02,52.78"/><path stroke="#574B90" stroke-width="0.4mm" fill="none" d="M705.24,587.06L757.84,410.63L715.81,231.38L590.25,96.73L414.37,42.29"/><path stroke="#574B90" stroke-width="0.4mm" fill="none" d="M726.27,565.85L765.55,381.77L708.15,202.51L569.25,75.49L385.60,34.28"/><path stroke="#574B90" stroke-width="0.4mm" fill="none" d="M742.01,551.35L772.00,361.36L703.61,181.60L554.92,59.59L365.26,27.62"/><path stroke="#574B90" stroke-width="0.4mm" fill="none" d="M751.55,549.45L779.34,354.98L706.80,172.41L553.13,50.03L358.95,20.21"/><path stroke="#574B90" stroke-width="0.4mm" fill="none" d="M754.51,562.56L788.42,364.88L719.60,176.49L566.26,47.21L368.95,11.24"/><path stroke="#574B90" stroke-width="0.4mm" fill="none" d="M750.48,588.59L797.86,389.47L740.02,193.13L592.25,51.51L393.63,2.05"/><path stroke="#574B90" stroke-width="0.4mm" fill="none" d="M740.16,621.65L805.33,423.29L763.31,218.77L625.20,62.18L427.53,-5.07"/><path stroke="#574B90" stroke-width="0.4mm" fill="none" d="M726.81,654.15L809.90,458.13L784.59,246.74L657.56,75.87L462.42,-9.27"/><path stroke="#574B90" stroke-width="0.4mm" fill="none" d="M716.24,679.42L813.29,485.30L801.03,268.63L682.71,86.70L489.63,-12.37"/><path stroke="#574B90" stroke-width="0.4mm" fill="none" d="M714.58,693.15L818.67,498.05L812.04,277.02L696.43,88.51L502.43,-17.62"/><path stroke="#574B90" stroke-width="0.4mm" fill="none" d="M725.21,693.40L828.02,492.98L817.63,267.97L696.79,77.88L497.45,-27.02"/><path stroke="#574B90" stroke-width="0.4mm" fill="none" d="M747.03,680.15L840.37,470.64L817.25,242.45L683.77,55.92L475.25,-39.61"/><path stroke="#574B90" stroke-width="0.4mm" fill="none" d="M774.94,655.99L852.59,435.81L810.53,206.15L659.91,27.76L440.54,-52.19"/><path stroke="#574B90" stroke-width="0.4mm" fill="none" d="M802.46,626.86L861.99,396.85L799.33,167.67L631.07,-0.07L401.69,-62.00"/><path stroke="#574B90" stroke-width="0.4mm" fill="none" d="M824.66,601.41L868.60,363.73L788.61,135.65L605.85,-22.53L368.64,-68.95"/><path stroke="#574B90" stroke-width="0.4mm" fill="none" d="M839.33,588.35L874.84,345.11L784.77,116.39L592.94,-37.33L350.09,-75.39"/><path stroke="#574B90" stroke-width="0.4mm" fill="none" d="M845.91,593.30L883.01,346.13L792.36,113.21L597.95,-43.86L351.19,-83.54"/><path stroke="#574B90" stroke-width="0.4mm" fill="none" d="M843.98,616.61L892.92,367.33L811.50,126.68L621.25,-41.68L372.49,-93.23"/><path stroke="#574B90" stroke-width="0.4mm" fill="none" d="M833.46,653.20L901.98,404.30L837.74,154.26L657.73,-30.79L409.56,-101.91"/><path stroke="#574B90" stroke-width="0.4mm" fill="none" d="M816.55,694.25L907.71,448.33L864.59,189.62L698.60,-13.45L453.64,-107.17"/><path stroke="#574B90" stroke-width="0.4mm" fill="none" d="M798.92,730.44L910.39,488.49L886.87,223.14L734.60,4.57L493.83,-109.43"/><path stroke="#574B90" stroke-width="0.4mm" fill="none" d="M788.36,754.75L913.31,514.84L902.50,244.55L758.80,15.37L520.20,-112.08"/><path stroke="#574B90" stroke-width="0.4mm" fill="none" d="M791.30,763.37L920.14,520.85L911.42,246.37L767.45,12.52L526.29,-118.85"/><path stroke="#574B90" stroke-width="0.4mm" fill="none" d="M809.48,755.09L931.80,504.64L913.48,226.51L759.36,-5.74L510.20,-130.68"/><path stroke="#574B90" stroke-width="0.4mm" fill="none" d="M839.02,731.31L945.61,469.32L907.91,189.00L735.89,-35.52L475.03,-144.86"/><path stroke="#574B90" stroke-width="0.4mm" fill="none" d="M872.38,697.02L957.53,422.98L895.22,142.86L701.95,-69.25L428.82,-157.26"/><path stroke="#574B90" stroke-width="0.4mm" fill="none" d="M902.11,661.22L965.54,377.14L879.40,99.11L666.47,-99.35L383.07,-165.75"/><path stroke="#574B90" stroke-width="0.4mm" fill="none" d="M923.72,634.94L971.22,343.60L867.66,67.18L640.41,-121.23L349.59,-171.78"/><path stroke="#574B90" stroke-width="0.4mm" fill="none" d="M935.73,627.41L977.91,331.10L867.25,53.00L633.01,-133.32L337.15,-178.60"/><path stroke="#574B90" stroke-width="0.4mm" fill="none" d="M937.78,642.69L987.27,343.33L881.45,58.97L648.30,-135.21L349.49,-187.83"/><path stroke="#574B90" stroke-width="0.4mm" fill="none" d="M929.42,678.06L997.60,378.18L907.74,84.08L683.59,-126.48L384.44,-197.80"/><path stroke="#574B90" stroke-width="0.4mm" fill="none" d="M911.52,724.94L1005.36,427.76L939.11,123.24L730.27,-108.09L434.09,-205.04"/><path stroke="#574B90" stroke-width="0.4mm" fill="none" d="M888.54,771.92L1008.77,479.95L968.00,166.83L777.02,-84.62L486.32,-207.90"/><path stroke="#574B90" stroke-width="0.4mm" fill="none" d="M868.79,808.81L1009.96,521.77L989.82,202.54L813.69,-64.48L528.15,-208.65"/><path stroke="#574B90" stroke-width="0.4mm" fill="none" d="M861.37,829.00L1013.56,542.98L1003.48,219.15L833.81,-56.85L549.40,-212.03"/><path stroke="#574B90" stroke-width="0.4mm" fill="none" d="M871.76,829.52L1022.84,538.28L1009.19,210.46L834.44,-67.23L544.79,-221.35"/><path stroke="#574B90" stroke-width="0.4mm" fill="none" d="M898.93,810.34L1036.89,508.13L1006.40,177.31L815.55,-94.61L514.79,-235.72"/><path stroke="#574B90" stroke-width="0.4mm" fill="none" d="M935.87,774.91L1051.33,459.02L994.54,127.52L780.50,-131.91L465.84,-250.68"/><path stroke="#574B90" stroke-width="0.4mm" fill="none" d="M973.10,731.36L1061.99,402.73L975.81,73.38L737.35,-169.60L409.66,-261.93"/><path stroke="#574B90" stroke-width="0.4mm" fill="none" d="M1003.11,691.82L1068.38,353.50L956.89,27.48L698.12,-200.02L360.50,-268.83"/></g></svg>